<?xml version="1.0" encoding="utf-8"?>
<!-- Generator: Adobe Illustrator 16.0.0, SVG Export Plug-In . SVG Version: 6.00 Build 0)  -->
<!DOCTYPE svg PUBLIC "-//W3C//DTD SVG 1.1//EN" "http://www.w3.org/Graphics/SVG/1.1/DTD/svg11.dtd">
<svg version="1.1" xmlns="http://www.w3.org/2000/svg" xmlns:xlink="http://www.w3.org/1999/xlink" x="0px" y="0px"
	 width="326.074px" height="300px" viewBox="0 0 326.074 300" enable-background="new 0 0 326.074 300" xml:space="preserve">
<g id="Calque_1">
	<g id="CIRCLE">
	</g>
	<g id="plan-8">
	</g>
</g>
<g id="plan-2">
	<g id="_x3C_Calque_x3E_" display="none">
	</g>
	<g id="TXT-WHITE">
	</g>
	<g id="TXT-BLACK" display="none">
	</g>
	<g id="motif_1_">
	</g>
</g>
<g id="Plan-3">
</g>
<g id="Plan-4">
</g>
<g id="PARTS">
	<g id="parts">
		<g id="tr">
		</g>
	</g>
	<g id="traits" display="none">
	</g>
</g>
<g id="CALQUE">
	
		<rect id="square-left-top" x="54.574" y="39.5" opacity="0.2" fill="#009444" stroke="#009444" stroke-miterlimit="10" width="112" height="142"/>
	<rect id="square-left-bottom" x="54.074" y="150" opacity="0.1" fill="#8B5E3C" width="113" height="112"/>
	<rect id="square-right-top" x="166.074" y="39" opacity="0.1" fill="#8B5E3C" width="113" height="112"/>
	<g id="wave1">
		<g id="arc1-bottom">
			<path fill="#615B5D" d="M110.532,149.055c0,0,0.051,0.173,0.146,0.497c0.062,0.333,0.271,0.778,0.304,1.428
				c0.033,0.32,0.075,0.688,0.103,1.091c0.009,0.392-0.016,0.815-0.03,1.279c-0.022,0.462-0.13,0.938-0.205,1.46
				c-0.091,0.519-0.276,1.035-0.432,1.603c-0.201,0.542-0.438,1.107-0.715,1.68c-0.307,0.553-0.616,1.146-1.027,1.689
				c-0.769,1.137-1.809,2.181-3.008,3.119c-0.31,0.222-0.619,0.452-0.943,0.669c-0.324,0.215-0.676,0.388-1.021,0.583
				c-0.682,0.407-1.443,0.681-2.202,0.966c-0.777,0.229-1.562,0.489-2.382,0.587c-0.406,0.068-0.813,0.138-1.227,0.151l-0.618,0.038
				l-0.309,0.018l-0.155,0.009l-0.077,0.04L96.695,166h-0.019l-0.172-0.039l-1.019-0.08c-0.297-0.006-0.762-0.083-1.21-0.154
				c-0.924-0.107-1.689-0.37-2.466-0.599c-0.759-0.286-1.522-0.558-2.203-0.967c-0.706-0.36-1.356-0.791-1.966-1.252
				c-1.2-0.939-2.24-1.983-3.01-3.12c-0.412-0.545-0.72-1.141-1.028-1.692c-0.278-0.572-0.512-1.14-0.715-1.681
				c-0.155-0.567-0.339-1.085-0.431-1.604c-0.075-0.523-0.181-0.999-0.204-1.461c-0.014-0.465-0.039-0.888-0.029-1.279
				c0.038-0.391,0.074-0.749,0.105-1.072c0.035-0.633,0.241-1.127,0.305-1.45c0.096-0.323,0.147-0.495,0.147-0.495
				s0.068,0.168,0.197,0.482c0.128,0.311,0.271,0.764,0.534,1.304c0.124,0.265,0.263,0.558,0.412,0.877
				c0.188,0.304,0.357,0.633,0.55,0.972c0.409,0.672,0.902,1.379,1.479,2.084c0.605,0.688,1.261,1.392,2.047,2.005
				c0.746,0.651,1.641,1.179,2.547,1.672c0.92,0.485,1.928,0.811,2.941,1.1c0.521,0.107,1.058,0.219,1.486,0.261
				c0.349,0.098,1.195,0.122,1.833,0.159c-0.299-0.008-0.075,0.03-0.139,0.03h0.012l0.025-0.037l0.051-0.02l0.1-0.013l0.201-0.013
				l0.401-0.016c0.27,0.006,0.532-0.04,0.796-0.078c0.532-0.052,1.05-0.162,1.569-0.27c1.018-0.283,2.022-0.617,2.945-1.099
				c0.906-0.493,1.802-1.02,2.549-1.672c0.787-0.615,1.442-1.319,2.048-2.007c0.575-0.706,1.068-1.414,1.478-2.086
				c0.191-0.34,0.361-0.669,0.548-0.973c0.149-0.313,0.286-0.599,0.409-0.857c0.262-0.524,0.408-1.025,0.534-1.326
				C110.464,149.222,110.532,149.055,110.532,149.055z"/>
		</g>
		<g id="arc1-top">
			<path fill="#615B5D" d="M54.847,149.609c0,0-0.051-0.173-0.146-0.497c-0.062-0.333-0.271-0.778-0.305-1.428
				c-0.032-0.32-0.074-0.688-0.102-1.091c-0.009-0.392,0.015-0.815,0.03-1.279c0.022-0.462,0.13-0.938,0.205-1.461
				c0.09-0.518,0.275-1.034,0.431-1.602c0.202-0.542,0.438-1.107,0.715-1.68c0.307-0.553,0.616-1.146,1.028-1.69
				c0.769-1.137,1.808-2.181,3.008-3.119c0.309-0.222,0.619-0.452,0.942-0.669c0.324-0.215,0.677-0.388,1.021-0.583
				c0.682-0.407,1.443-0.681,2.202-0.966c1.54-0.531,3.194-0.761,4.845-0.81l1.171,0.066c0.296,0.006,0.762,0.073,1.21,0.145
				c0.924,0.107,1.688,0.366,2.466,0.595c0.759,0.286,1.521,0.554,2.203,0.964c0.706,0.36,1.356,0.79,1.966,1.251
				c1.2,0.939,2.24,1.983,3.01,3.12c0.412,0.545,0.721,1.139,1.028,1.691c0.278,0.572,0.512,1.139,0.715,1.681
				c0.155,0.567,0.34,1.085,0.431,1.604c0.075,0.523,0.181,0.999,0.204,1.461c0.014,0.465,0.039,0.888,0.029,1.279
				c-0.038,0.391-0.074,0.749-0.105,1.072c-0.035,0.633-0.241,1.127-0.305,1.45c-0.096,0.323-0.147,0.495-0.147,0.495
				s-0.068-0.168-0.197-0.482c-0.128-0.311-0.271-0.764-0.534-1.304c-0.124-0.265-0.263-0.558-0.412-0.877
				c-0.188-0.304-0.357-0.633-0.55-0.972c-0.409-0.672-0.902-1.379-1.479-2.085c-0.604-0.687-1.261-1.391-2.047-2.005
				c-0.746-0.651-1.641-1.178-2.547-1.671c-0.92-0.485-1.928-0.811-2.941-1.1c-0.521-0.107-1.058-0.219-1.486-0.261
				c-0.222-0.035-0.427-0.083-0.813-0.084l-0.51-0.02l-0.255-0.009l-0.128-0.005l-0.063,0.131L68.602,139h-0.016
				c0.063,0-0.162-0.139,0.136-0.132c-1.073,0.016-2.136,0.07-3.169,0.309c-1.017,0.284-2.021,0.583-2.945,1.063
				c-0.906,0.494-1.802,1.004-2.549,1.655c-0.786,0.615-1.442,1.312-2.048,1.999c-0.575,0.707-1.067,1.41-1.477,2.082
				c-0.191,0.34-0.361,0.666-0.549,0.971c-0.148,0.312-0.285,0.598-0.408,0.856c-0.262,0.524-0.408,1.024-0.534,1.325
				C54.915,149.443,54.847,149.609,54.847,149.609z"/>
		</g>
	</g>
	<g id="wave2">
		<g id="arc2-bottom">
			<path fill="#615B5D" d="M110.994,149.516c0,0,0.077,0.337,0.221,0.969c0.158,0.619,0.273,1.593,0.649,2.703
				c0.174,0.562,0.346,1.177,0.563,1.832c0.278,0.652,0.536,1.358,0.827,2.102c0.303,0.739,0.733,1.483,1.118,2.277
				c0.413,0.783,0.939,1.558,1.426,2.381c0.57,0.777,1.134,1.6,1.787,2.389c0.704,0.752,1.328,1.6,2.155,2.307
				c1.506,1.547,3.368,2.859,5.328,4.068c1.987,1.19,4.21,2.06,6.5,2.756c2.32,0.623,4.741,0.922,7.176,0.97l1.889-0.088
				c0.322-0.023,0.717-0.01,0.98-0.064l0.844-0.133c0.568-0.109,1.108-0.112,1.705-0.279c0.587-0.137,1.173-0.273,1.757-0.409
				c2.287-0.703,4.512-1.563,6.497-2.759c1.959-1.209,3.82-2.521,5.324-4.067c0.827-0.707,1.453-1.553,2.155-2.307
				c0.653-0.788,1.219-1.609,1.787-2.387c0.487-0.822,1.016-1.596,1.426-2.38c0.386-0.794,0.817-1.537,1.12-2.275
				c0.293-0.743,0.549-1.45,0.828-2.102c0.219-0.664,0.393-1.287,0.566-1.852c0.377-1.126,0.489-2.053,0.649-2.68
				c0.145-0.634,0.222-0.972,0.222-0.972s0.043,0.342,0.123,0.983c0.035,0.325,0.078,0.726,0.129,1.196
				c0.022,0.236,0.061,0.493,0.073,0.766c-0.004,0.271-0.009,0.561-0.014,0.865c-0.014,0.612-0.014,1.298-0.047,2.047
				c-0.078,0.74-0.209,1.537-0.33,2.402c-0.142,0.858-0.408,1.746-0.634,2.71c-0.253,0.954-0.679,1.9-1.046,2.932
				c-0.461,0.981-0.961,2.012-1.55,3.038c-0.645,0.986-1.264,2.062-2.089,3.023c-1.527,2.031-3.535,3.86-5.788,5.516
				c-0.585,0.387-1.175,0.776-1.77,1.168c-0.603,0.381-1.259,0.678-1.896,1.021l-0.97,0.5l-1.015,0.413
				c-0.688,0.256-1.366,0.554-2.074,0.771c-1.426,0.396-2.842,0.842-4.441,1.023l-1.17,0.176c-0.406,0.067-0.697,0.052-1.052,0.082
				l-2.19,0.118c-3.012-0.081-6.025-0.486-8.853-1.403c-0.707-0.219-1.388-0.513-2.072-0.772l-1.016-0.413l-0.969-0.5
				c-0.638-0.344-1.294-0.641-1.896-1.021c-0.594-0.393-1.184-0.783-1.768-1.17c-2.253-1.655-4.26-3.484-5.786-5.516
				c-0.824-0.961-1.445-2.034-2.089-3.022c-0.588-1.025-1.09-2.054-1.549-3.036c-0.368-1.031-0.796-1.976-1.046-2.931
				c-0.227-0.964-0.494-1.851-0.637-2.709c-0.122-0.864-0.251-1.662-0.33-2.401c-0.036-0.757-0.037-1.451-0.051-2.066
				c-0.005-0.306-0.01-0.596-0.015-0.869c0.015-0.269,0.053-0.518,0.074-0.751c0.051-0.466,0.094-0.862,0.129-1.184
				C110.952,149.858,110.994,149.516,110.994,149.516z"/>
		</g>
		<g id="arc2-top">
			<path fill="#615B5D" d="M55.124,150.627c0,0-0.042-0.343-0.122-0.986c-0.035-0.321-0.078-0.718-0.129-1.184
				c-0.021-0.233-0.06-0.482-0.074-0.751c0.005-0.273,0.01-0.563,0.015-0.869c0.014-0.615,0.015-1.31,0.051-2.066
				c0.079-0.739,0.208-1.537,0.33-2.401c0.143-0.858,0.41-1.745,0.637-2.709c0.25-0.954,0.679-1.899,1.046-2.931
				c0.459-0.981,0.961-2.01,1.549-3.036c0.644-0.988,1.265-2.061,2.089-3.021c1.526-2.031,3.533-3.861,5.786-5.516
				c0.585-0.387,1.174-0.776,1.768-1.17c0.604-0.38,1.26-0.677,1.896-1.021l0.97-0.499l1.015-0.413
				c0.686-0.261,1.365-0.555,2.072-0.772c2.827-0.917,5.841-1.322,8.853-1.403l2.19,0.118c0.354,0.03,0.646,0.015,1.052,0.082
				l1.17,0.176c1.6,0.182,3.016,0.626,4.441,1.023c0.708,0.217,1.387,0.515,2.073,0.77l1.016,0.414l0.97,0.499
				c0.637,0.344,1.294,0.641,1.896,1.021c0.594,0.393,1.184,0.782,1.769,1.168c2.254,1.655,4.262,3.484,5.789,5.516
				c0.824,0.962,1.444,2.036,2.089,3.023c0.589,1.026,1.089,2.056,1.55,3.037c0.367,1.031,0.793,1.978,1.046,2.933
				c0.226,0.963,0.492,1.851,0.634,2.709c0.121,0.865,0.252,1.662,0.33,2.402c0.033,0.749,0.033,1.435,0.047,2.047
				c0.005,0.305,0.01,0.594,0.014,0.865c-0.013,0.272-0.051,0.529-0.073,0.766c-0.051,0.471-0.094,0.871-0.129,1.196
				c-0.08,0.642-0.123,0.983-0.123,0.983s-0.077-0.338-0.222-0.972c-0.16-0.627-0.272-1.554-0.649-2.68
				c-0.174-0.564-0.348-1.188-0.566-1.852c-0.279-0.651-0.535-1.358-0.828-2.101c-0.303-0.739-0.734-1.482-1.12-2.275
				c-0.41-0.784-0.938-1.558-1.426-2.381c-0.568-0.777-1.134-1.599-1.787-2.387c-0.702-0.753-1.328-1.6-2.155-2.306
				c-1.504-1.546-3.366-2.858-5.324-4.067c-1.985-1.194-4.21-2.056-6.497-2.758c-0.584-0.136-1.17-0.272-1.757-0.409
				c-0.597-0.167-1.137-0.17-1.705-0.279l-0.844-0.133c-0.264-0.055-0.658-0.041-0.98-0.064l-1.889-0.088
				c-2.435,0.048-4.855,0.346-7.176,0.97c-2.29,0.696-4.513,1.564-6.5,2.755c-1.96,1.21-3.822,2.521-5.327,4.067
				c-0.828,0.707-1.451,1.556-2.156,2.308c-0.653,0.789-1.217,1.61-1.787,2.388c-0.486,0.823-1.013,1.598-1.426,2.382
				c-0.385,0.794-0.815,1.537-1.118,2.276c-0.291,0.743-0.549,1.45-0.827,2.102c-0.217,0.655-0.389,1.271-0.563,1.832
				c-0.376,1.11-0.491,2.084-0.649,2.703C55.201,150.29,55.124,150.627,55.124,150.627z"/>
		</g>
	</g>
	<g id="wave3">
		<g id="arc3-bottom">
			<path fill="#615B5D" d="M277.124,149.701c0,0,0.025,0.683,0.072,1.964c0.02,0.64,0.042,1.43,0.069,2.357
				c0.008,0.465,0.042,0.963,0.031,1.495c-0.045,0.535-0.092,1.104-0.142,1.705c-0.108,1.202-0.196,2.552-0.358,4.015
				c-0.257,1.436-0.58,2.985-0.908,4.653c-0.128,0.846-0.46,1.658-0.699,2.529c-0.265,0.866-0.536,1.758-0.814,2.672
				c-0.235,0.936-0.697,1.805-1.073,2.738c-0.398,0.926-0.807,1.873-1.223,2.841c-0.45,0.952-1.008,1.874-1.525,2.844
				c-0.266,0.482-0.533,0.969-0.804,1.46c-0.266,0.494-0.539,0.99-0.877,1.45c-1.312,1.862-2.569,3.885-4.223,5.677
				c-3.045,3.813-6.96,7.245-11.339,10.304c-1.131,0.716-2.271,1.438-3.42,2.164c-1.157,0.714-2.42,1.262-3.641,1.905
				c-0.617,0.311-1.236,0.621-1.856,0.934c-0.646,0.254-1.295,0.509-1.945,0.764c-1.312,0.479-2.61,1.028-3.962,1.428
				c-1.365,0.359-2.735,0.721-4.109,1.084l-1.033,0.265l-1.054,0.17l-2.114,0.337l-2.119,0.334c-0.705,0.132-1.426,0.109-2.139,0.17
				l-2.146,0.122l-1.074,0.06l-0.537,0.029l-0.269,0.015l-0.135,0.008l-0.066,0.003c-0.09,0,0.106,0.007-0.219,0l-4.079-0.217
				c-0.692-0.057-1.327-0.026-2.067-0.155l-2.177-0.329l-2.171-0.337l-1.081-0.176l-1.034-0.269
				c-1.374-0.367-2.743-0.733-4.107-1.098c-1.352-0.401-2.646-0.962-3.961-1.436c-0.649-0.256-1.298-0.51-1.944-0.764
				c-0.621-0.313-1.24-0.624-1.857-0.935c-1.221-0.644-2.482-1.191-3.641-1.905c-1.148-0.728-2.289-1.449-3.42-2.165
				c-4.379-3.06-8.3-6.488-11.342-10.304c-1.653-1.792-2.908-3.817-4.224-5.677c-0.338-0.46-0.611-0.956-0.877-1.451
				c-0.271-0.491-0.538-0.978-0.804-1.46c-0.518-0.971-1.075-1.892-1.524-2.845c-0.416-0.968-0.823-1.916-1.222-2.842
				c-0.375-0.935-0.84-1.802-1.074-2.738c-0.278-0.915-0.55-1.806-0.813-2.672c-0.239-0.872-0.572-1.685-0.698-2.53
				c-0.328-1.669-0.652-3.219-0.909-4.654c-0.159-1.454-0.245-2.795-0.354-3.995c-0.05-0.6-0.097-1.167-0.141-1.701
				c-0.013-0.536,0.021-1.042,0.029-1.51c0.027-0.933,0.051-1.727,0.07-2.37c0.048-1.279,0.073-1.961,0.073-1.961
				s0.095,0.678,0.271,1.949c0.083,0.632,0.186,1.41,0.307,2.326c0.064,0.456,0.115,0.947,0.204,1.466
				c0.115,0.516,0.238,1.063,0.368,1.642c0.268,1.152,0.528,2.43,0.873,3.801c0.459,1.347,0.908,2.806,1.407,4.352
				c0.207,0.786,0.621,1.533,0.941,2.332c0.343,0.79,0.694,1.603,1.056,2.436c0.324,0.848,0.833,1.639,1.267,2.483
				c0.45,0.835,0.91,1.688,1.381,2.562c0.5,0.854,1.105,1.67,1.666,2.529c0.287,0.426,0.576,0.856,0.867,1.29
				c0.286,0.438,0.578,0.874,0.934,1.273c1.381,1.62,2.616,3.437,4.266,4.981c0.796,0.794,1.549,1.65,2.402,2.421
				c0.877,0.743,1.765,1.497,2.661,2.258c0.865,0.797,1.872,1.437,2.835,2.145c0.486,0.349,0.975,0.698,1.465,1.05l0.735,0.529
				l0.787,0.459c4.105,2.637,8.792,4.516,13.618,6.058c1.232,0.303,2.47,0.607,3.711,0.912l0.93,0.227l0.925,0.13l1.848,0.276
				l1.851,0.286c0.599,0.116,1.335,0.088,1.997,0.139l4.079,0.195c-0.283-0.009-0.044-0.004-0.091-0.007l0.06-0.003l0.121-0.006
				l0.241-0.011l0.483-0.022l0.966-0.043l1.931-0.084c0.643-0.047,1.293-0.01,1.927-0.125l1.907-0.28l1.905-0.276l0.951-0.136
				l0.931-0.23c1.241-0.31,2.478-0.618,3.71-0.926c4.822-1.558,9.513-3.427,13.616-6.067l0.787-0.459l0.736-0.529
				c0.49-0.352,0.979-0.702,1.464-1.051c0.963-0.709,1.976-1.342,2.838-2.142c0.897-0.762,1.784-1.516,2.661-2.26
				c0.854-0.771,1.606-1.627,2.402-2.421c1.65-1.545,2.883-3.364,4.268-4.982c0.355-0.398,0.647-0.836,0.934-1.273
				c0.291-0.434,0.58-0.864,0.866-1.29c0.561-0.86,1.166-1.677,1.666-2.531c0.47-0.872,0.931-1.727,1.381-2.562
				c0.432-0.846,0.943-1.636,1.267-2.482c0.361-0.834,0.713-1.647,1.055-2.438c0.32-0.799,0.733-1.546,0.941-2.332
				c0.498-1.547,0.948-3.006,1.406-4.353c0.342-1.362,0.602-2.632,0.869-3.781c0.13-0.577,0.252-1.124,0.368-1.638
				c0.09-0.522,0.14-1.021,0.205-1.48c0.12-0.921,0.223-1.704,0.306-2.339C277.03,150.378,277.124,149.701,277.124,149.701z"/>
		</g>
		<g id="arc3-top">
			<path fill="#615B5D" d="M55.124,149.701c0,0-0.025-0.683-0.072-1.964c-0.02-0.64-0.042-1.43-0.069-2.357
				c-0.008-0.465-0.042-0.963-0.031-1.495c0.045-0.535,0.092-1.104,0.142-1.705c0.108-1.202,0.196-2.552,0.358-4.015
				c0.257-1.436,0.58-2.985,0.909-4.653c0.127-0.846,0.46-1.658,0.698-2.529c0.265-0.866,0.536-1.757,0.814-2.672
				c0.235-0.936,0.697-1.805,1.074-2.737c0.398-0.927,0.806-1.874,1.222-2.842c0.45-0.952,1.008-1.874,1.525-2.844
				c0.266-0.481,0.533-0.969,0.804-1.459c0.266-0.495,0.54-0.991,0.877-1.451c1.312-1.862,2.57-3.885,4.223-5.677
				c3.045-3.812,6.96-7.245,11.339-10.303c1.131-0.716,2.271-1.438,3.42-2.165c1.157-0.714,2.419-1.262,3.641-1.905
				c0.617-0.311,1.236-0.621,1.856-0.934c0.646-0.254,1.295-0.508,1.945-0.764c1.311-0.479,2.61-1.028,3.962-1.427
				c5.408-1.655,11.128-2.437,16.863-2.601l4.229,0.221c0.693,0.057,1.328,0.026,2.068,0.155l2.177,0.329l2.17,0.337l1.082,0.176
				l1.034,0.269c1.373,0.367,2.743,0.733,4.106,1.099c1.352,0.4,2.647,0.961,3.961,1.435c0.65,0.256,1.299,0.511,1.945,0.765
				c0.62,0.312,1.239,0.623,1.856,0.934c1.222,0.644,2.483,1.191,3.641,1.906c1.149,0.727,2.29,1.449,3.421,2.165
				c4.378,3.06,8.299,6.487,11.341,10.304c1.653,1.792,2.909,3.816,4.224,5.677c0.338,0.459,0.611,0.956,0.877,1.451
				c0.271,0.49,0.539,0.978,0.804,1.46c0.518,0.97,1.075,1.892,1.524,2.844c0.417,0.968,0.824,1.916,1.223,2.843
				c0.374,0.934,0.84,1.802,1.074,2.737c0.278,0.915,0.55,1.806,0.813,2.673c0.239,0.871,0.571,1.684,0.698,2.529
				c0.327,1.669,0.652,3.219,0.908,4.654c0.16,1.454,0.246,2.795,0.354,3.995c0.05,0.6,0.097,1.167,0.141,1.701
				c0.013,0.536-0.021,1.042-0.029,1.51c-0.027,0.933-0.051,1.727-0.07,2.37c-0.048,1.279-0.073,1.961-0.073,1.961
				s-0.095-0.678-0.271-1.949c-0.083-0.632-0.186-1.41-0.307-2.326c-0.064-0.456-0.115-0.947-0.204-1.466
				c-0.115-0.516-0.238-1.063-0.369-1.642c-0.267-1.152-0.527-2.43-0.872-3.801c-0.459-1.347-0.908-2.806-1.407-4.352
				c-0.208-0.786-0.622-1.533-0.941-2.332c-0.343-0.79-0.695-1.603-1.057-2.436c-0.324-0.847-0.832-1.639-1.266-2.482
				c-0.45-0.835-0.911-1.689-1.381-2.562c-0.5-0.854-1.105-1.671-1.667-2.53c-0.286-0.426-0.575-0.855-0.867-1.29
				c-0.285-0.437-0.578-0.874-0.934-1.273c-1.38-1.62-2.615-3.437-4.266-4.981c-0.796-0.794-1.548-1.649-2.402-2.42
				c-0.876-0.744-1.764-1.497-2.661-2.259c-0.864-0.797-1.872-1.436-2.835-2.144c-0.486-0.349-0.974-0.699-1.464-1.051l-0.736-0.529
				l-0.787-0.459c-4.104-2.636-8.791-4.516-13.617-6.058c-1.232-0.303-2.471-0.607-3.712-0.912l-0.93-0.227l-0.924-0.13
				l-1.849-0.276l-1.85-0.286c-0.599-0.116-1.336-0.088-1.997-0.139l-3.928-0.191c-5.156,0.095-10.307,0.72-15.193,2.146
				c-4.822,1.558-9.513,3.428-13.616,6.067l-0.787,0.459l-0.736,0.529c-0.49,0.353-0.979,0.702-1.464,1.051
				c-0.963,0.709-1.976,1.342-2.838,2.142c-0.897,0.762-1.784,1.516-2.661,2.26c-0.854,0.771-1.606,1.627-2.402,2.421
				c-1.65,1.545-2.883,3.364-4.267,4.982c-0.355,0.399-0.648,0.836-0.934,1.273c-0.292,0.434-0.581,0.864-0.867,1.29
				c-0.561,0.86-1.166,1.678-1.666,2.531c-0.47,0.873-0.931,1.728-1.38,2.563c-0.433,0.845-0.944,1.635-1.268,2.482
				c-0.361,0.834-0.713,1.646-1.055,2.437c-0.32,0.799-0.733,1.546-0.941,2.332c-0.497,1.547-0.948,3.006-1.406,4.353
				c-0.342,1.362-0.602,2.632-0.868,3.781c-0.13,0.577-0.253,1.124-0.369,1.638c-0.09,0.522-0.14,1.021-0.205,1.48
				c-0.12,0.921-0.223,1.704-0.306,2.339C55.218,149.024,55.124,149.701,55.124,149.701z"/>
		</g>
	</g>
	<g id="round3" opacity="0.2">
		<circle fill="#ED1C24" cx="221.855" cy="150.95" r="14.06"/>
		<g>
			<path fill="#ED1C24" d="M221.855,165.01c0,0-0.345-0.016-0.991-0.043c-0.324,0-0.72-0.055-1.184-0.128
				c-0.469-0.049-0.994-0.168-1.579-0.325c-1.159-0.322-2.564-0.826-3.976-1.762c-1.415-0.917-2.853-2.22-4.052-3.93
				c-1.182-1.717-2.078-3.863-2.404-6.255c-0.063-0.601-0.111-1.2-0.116-1.836c0.028-0.61,0.012-1.218,0.125-1.858
				c0.134-1.282,0.516-2.527,1.011-3.758c0.508-1.229,1.236-2.378,2.076-3.458c0.871-1.062,1.922-1.985,3.069-2.789
				c1.166-0.78,2.457-1.382,3.807-1.824c1.362-0.416,2.785-0.611,4.213-0.652c1.395,0.035,2.857,0.234,4.213,0.65
				c1.351,0.442,2.642,1.044,3.808,1.824c1.148,0.804,2.197,1.729,3.071,2.788c0.84,1.081,1.569,2.23,2.076,3.459
				c1.034,2.44,1.325,5.079,1.021,7.443c-0.328,2.412-1.224,4.545-2.405,6.266c-1.2,1.711-2.639,3.012-4.053,3.929
				c-1.411,0.937-2.816,1.44-3.976,1.763c-0.585,0.157-1.11,0.276-1.579,0.325c-0.464,0.073-0.859,0.128-1.184,0.128
				C222.2,164.994,221.855,165.01,221.855,165.01z M221.855,165.01c0,0,0.345-0.02,0.99-0.057c0.324-0.004,0.719-0.063,1.181-0.143
				c0.466-0.055,0.989-0.181,1.569-0.346c1.151-0.336,2.542-0.855,3.93-1.804c1.387-0.931,2.816-2.228,3.927-3.963
				c1.105-1.725,1.907-3.867,2.144-6.172c0.22-2.34-0.152-4.835-1.213-7.129c-1.065-2.29-2.811-4.328-5.002-5.787
				c-1.104-0.719-2.321-1.264-3.587-1.661c-1.283-0.373-2.575-0.529-3.939-0.56c-1.331,0.023-2.661,0.186-3.939,0.558
				c-1.266,0.398-2.483,0.943-3.588,1.662c-2.19,1.46-3.938,3.496-5.003,5.787c-0.508,1.147-0.919,2.348-1.083,3.542
				c-0.129,0.585-0.136,1.215-0.184,1.818c-0.014,0.578,0.013,1.185,0.054,1.761c0.238,2.325,1.04,4.453,2.146,6.183
				c1.11,1.735,2.542,3.03,3.928,3.962c1.389,0.947,2.779,1.468,3.931,1.803c0.58,0.165,1.104,0.291,1.569,0.346
				c0.462,0.08,0.856,0.139,1.181,0.143C221.511,164.99,221.855,165.01,221.855,165.01z"/>
		</g>
	</g>
	<g id="arc4">
		<g id="arc4-top">
			<path fill="#414042" d="M125.568,47.668c0,0,0.761-0.36,2.188-1.035c1.445-0.633,3.563-1.604,6.346-2.606
				c2.777-1.021,6.197-2.169,10.218-3.164c4.013-1.025,8.621-1.918,13.712-2.479c2.545-0.268,5.207-0.496,7.972-0.598
				c1.438-0.053,2.736-0.076,4.2-0.059c1.448,0.005,2.903,0.049,4.372,0.113c2.941,0.141,5.963,0.391,9.039,0.772
				c3.077,0.381,6.195,0.968,9.344,1.662c6.289,1.415,12.705,3.367,18.932,6.072c6.234,2.68,12.328,5.965,18.077,9.777
				c5.723,3.853,11.091,8.231,15.914,13.005c4.853,4.747,9.103,9.929,12.815,15.198c3.712,5.277,6.77,10.731,9.248,16.077
				c1.231,2.677,2.357,5.313,3.306,7.914c0.931,2.607,1.758,5.147,2.45,7.614c1.408,4.927,2.278,9.542,2.848,13.644
				c0.587,4.101,0.793,7.704,0.876,10.661c0.097,2.959,0.002,5.281-0.056,6.859c-0.093,1.577-0.142,2.418-0.142,2.418
				s-0.071-0.838-0.203-2.41c-0.134-1.57-0.389-3.866-0.788-6.766c-0.404-2.899-1.031-6.396-1.943-10.346
				c-0.936-3.945-2.198-8.337-3.87-13.008c-1.698-4.662-3.854-9.584-6.487-14.59c-2.644-5.002-5.866-10.027-9.518-14.972
				c-3.674-4.935-7.945-9.655-12.587-14.118c-4.669-4.436-9.763-8.574-15.204-12.201c-5.412-3.67-11.159-6.847-17.05-9.451
				c-5.896-2.584-11.882-4.753-17.848-6.251c-5.959-1.513-11.837-2.556-17.471-3.104c-1.412-0.136-2.8-0.249-4.155-0.325
				c-1.339-0.092-2.804-0.124-4.082-0.182c-2.669-0.096-5.251-0.06-7.732,0.02c-4.957,0.222-9.507,0.665-13.513,1.295
				c-4.004,0.638-7.482,1.356-10.324,2.058c-2.845,0.702-5.062,1.336-6.571,1.79C126.373,47.42,125.568,47.668,125.568,47.668z"/>
		</g>
		<g id="arc4-bottom">
			<path fill="#615B5D" d="M210.663,251.404c0,0-0.773,0.381-2.225,1.094c-0.727,0.353-1.623,0.787-2.678,1.298
				c-1.072,0.476-2.325,0.984-3.73,1.563c-1.396,0.613-2.983,1.151-4.711,1.761c-0.865,0.298-1.758,0.645-2.706,0.921
				c-0.951,0.272-1.938,0.555-2.955,0.846c-2.029,0.632-4.238,1.093-6.562,1.636c-1.158,0.299-2.368,0.475-3.604,0.683
				c-1.236,0.199-2.5,0.435-3.798,0.616c-2.604,0.27-5.315,0.783-8.146,0.89c-1.43,0.071-2.816,0.289-4.354,0.289
				c-1.437,0-2.896,0-4.374,0c-6.084,0-12.448-0.855-18.921-2.177c-6.47-1.306-13.089-3.21-19.507-5.892
				c-6.428-2.645-12.714-5.954-18.642-9.8c-5.901-3.884-11.442-8.33-16.411-13.188c-5-4.83-9.37-10.129-13.188-15.514
				c-3.829-5.381-6.982-10.961-9.496-16.447c-2.536-5.476-4.499-10.839-5.896-15.896c-0.4-1.248-0.646-2.514-0.966-3.725
				c-0.285-1.221-0.632-2.396-0.816-3.577c-0.425-2.349-0.884-4.559-1.116-6.671c-0.14-1.05-0.274-2.065-0.404-3.047
				c-0.115-0.981-0.165-1.937-0.235-2.85c-0.14-1.825-0.266-3.498-0.266-5.017c-0.029-1.517-0.075-2.865-0.058-4.04
				c0.045-1.175,0.083-2.174,0.113-2.983c0.072-1.614,0.11-2.476,0.11-2.476s0.082,0.858,0.235,2.468
				c0.071,0.803,0.16,1.792,0.264,2.956c0.152,1.156,0.328,2.485,0.524,3.975c0.163,1.489,0.467,3.122,0.8,4.895
				c0.172,0.885,0.315,1.81,0.509,2.762c0.214,0.947,0.437,1.929,0.665,2.942c0.9,4.054,2.254,8.539,3.921,13.336
				c0.45,1.188,0.91,2.399,1.378,3.636c0.475,1.231,1.053,2.449,1.587,3.705c0.272,0.626,0.548,1.257,0.825,1.893
				c0.303,0.625,0.607,1.255,0.915,1.89c0.628,1.262,1.198,2.573,1.923,3.831c2.678,5.14,5.992,10.284,9.758,15.329
				c3.774,5.044,8.159,9.869,12.94,14.411c4.806,4.516,10.062,8.705,15.669,12.361c5.579,3.701,11.508,6.877,17.581,9.449
				c1.531,0.61,3.058,1.219,4.575,1.824c1.541,0.548,3.074,1.094,4.598,1.637c1.549,0.469,3.088,0.935,4.617,1.397
				c1.533,0.449,3.086,0.781,4.61,1.175c6.141,1.397,12.19,2.317,17.916,2.766c1.477,0.075,2.934,0.148,4.368,0.222
				c1.334,0.088,2.776,0.018,4.127,0.057c2.738,0.092,5.374-0.126,7.918-0.207c5.062-0.42,9.717-0.942,13.792-1.747
				c1.021-0.195,2.009-0.384,2.963-0.566c0.952-0.194,1.856-0.439,2.736-0.635c1.755-0.413,3.378-0.773,4.801-1.223
				c1.442-0.415,2.729-0.785,3.849-1.108c1.11-0.373,2.055-0.691,2.821-0.949C209.845,251.675,210.663,251.404,210.663,251.404z"/>
		</g>
	</g>
</g>
<g id="Calque_10">
</g>
</svg>
